<?xml version="1.0" standalone="no"?>
<!DOCTYPE svg PUBLIC "-//W3C//DTD SVG 20010904//EN"
 "http://www.w3.org/TR/2001/REC-SVG-20010904/DTD/svg10.dtd">
<svg version="1.0" xmlns="http://www.w3.org/2000/svg"
 width="4001.000000pt" height="4001.000000pt" viewBox="0 0 4001.000000 4001.000000"
 preserveAspectRatio="xMidYMid meet">

<g transform="translate(0.000000,4001.000000) scale(0.100000,-0.100000)"
fill="#000000" stroke="none">
<path d="M24560 33581 c-73 -6 -72 -6 80 -19 85 -7 245 -24 355 -38 2065 -255
3947 -1069 5385 -2330 170 -148 516 -489 667 -656 567 -626 1018 -1322 1328
-2047 479 -1124 638 -2322 465 -3516 -302 -2084 -1574 -4099 -3715 -5885 -433
-361 -817 -651 -1366 -1031 -318 -220 -481 -339 -699 -514 -546 -437 -935
-844 -1229 -1285 -296 -445 -452 -869 -501 -1359 -11 -117 -13 -499 -3 -768
l6 -180 97 116 c520 621 1212 1090 2082 1415 749 279 1586 438 2568 487 261
13 1001 7 1235 -11 572 -42 1019 -102 1455 -195 261 -55 370 -72 550 -84 761
-53 1202 285 1259 966 20 236 -12 490 -94 736 -49 147 -70 279 -60 372 27 242
122 441 312 649 181 198 264 389 264 606 0 47 -4 105 -10 130 -26 116 -116
286 -237 448 l-55 72 61 73 c74 86 152 241 174 344 32 145 13 317 -49 450 -43
93 -79 144 -183 268 -130 153 -182 242 -182 314 0 118 157 215 700 436 328
133 617 272 707 339 115 87 164 170 171 291 6 105 -14 182 -78 310 -113 224
-261 397 -836 970 -515 514 -622 634 -767 856 -121 185 -207 394 -249 602 -20
99 -23 140 -23 362 1 307 7 354 119 944 70 366 96 631 103 1037 7 454 -17 744
-92 1124 -168 836 -533 1575 -1123 2270 -187 220 -511 534 -777 751 -1488
1217 -3807 1999 -6405 2159 -433 26 -1187 38 -1410 21z"/>
<path d="M6205 22654 c-259 -30 -408 -60 -602 -122 -179 -58 -207 -74 -367
-202 -203 -164 -360 -361 -481 -605 -85 -171 -125 -288 -160 -460 -58 -288
-61 -557 -9 -815 37 -181 144 -451 264 -659 31 -55 50 -100 50 -120 0 -33 26
-75 108 -173 23 -29 42 -61 42 -72 0 -11 18 -50 40 -86 l40 -66 248 -122 c268
-131 369 -169 555 -207 234 -49 447 -46 1062 15 494 49 696 53 1119 21 108 -8
134 -8 157 5 59 30 59 32 59 502 l0 429 -49 41 -50 42 -145 0 c-80 0 -146 3
-146 6 0 3 13 24 29 47 90 132 163 315 202 505 30 143 37 436 15 609 -108 848
-674 1400 -1520 1482 -100 10 -389 13 -461 5z m261 -935 c58 -18 77 -30 129
-82 34 -36 72 -87 89 -121 37 -77 73 -222 86 -347 13 -133 13 -626 -1 -764
-34 -334 -154 -521 -357 -554 -116 -19 -220 14 -283 88 -124 144 -165 312
-175 716 -14 535 49 859 195 1005 80 80 186 100 317 59z"/>
<path d="M10655 22581 c-11 -5 -28 -17 -37 -28 -16 -17 -18 -104 -23 -1167 -3
-632 -10 -1169 -15 -1195 -13 -67 -25 -94 -61 -135 -41 -47 -78 -66 -128 -66
-83 0 -138 41 -173 129 l-23 56 -3 1193 -2 1192 -724 0 c-587 0 -726 -2 -734
-13 -31 -37 -37 -122 -33 -467 6 -436 6 -531 -4 -1275 -8 -660 -5 -732 41
-917 105 -415 377 -712 784 -856 161 -56 240 -67 677 -88 117 -6 135 -5 159
11 25 16 35 17 107 5 88 -14 258 -8 446 16 538 69 914 290 1088 639 87 173 95
242 99 805 2 261 11 673 20 915 8 242 18 623 21 848 l6 407 -734 -1 c-404 0
-743 -4 -754 -8z"/>
<path d="M12725 22517 l-40 -23 -3 -1752 -2 -1752 742 2 743 3 17 35 c17 33
18 138 18 1773 l0 1737 -717 0 -718 0 -40 -23z"/>
<path d="M14730 22053 c1 -499 0 -496 44 -520 12 -7 217 -8 619 -5 l600 5
-115 -134 c-63 -74 -201 -242 -308 -374 -280 -347 -387 -478 -640 -778 -124
-148 -234 -283 -245 -300 -18 -29 -20 -59 -28 -427 -4 -217 -5 -404 -3 -416 3
-11 22 -42 41 -67 l36 -47 1517 2 c1425 3 1519 4 1549 21 53 28 55 48 51 512
-3 370 -5 425 -20 458 -10 22 -28 41 -43 47 -17 6 -274 10 -687 10 l-661 0 69
73 c39 39 92 101 119 137 27 36 196 229 374 430 546 613 655 735 729 821 18
20 32 46 32 57 0 11 7 39 16 63 14 38 17 104 18 457 l1 414 -24 19 c-23 19
-61 19 -1532 19 l-1509 0 0 -477z"/>
</g>
</svg>
